# AST/ASF file generated using VICON BodyLanguage
# -----------------------------------------------
:version 1.10
:name VICON
:units
  mass 1.0
  length 0.45
  angle deg
:documentation
   .ast/.asf automatically generated from VICON data using
   VICON BodyBuilder and BodyLanguage model FoxedUp or BRILLIANT.MOD
:root
   order TX TY TZ RX RY RZ
   axis XYZ
   position 0 0 0  
   orientation 0 0 0 
:bonedata
  begin
     id 1 
     name lhipjoint
     direction 0.710188 -0.616876 0.339259 
     length 2.5669 
     axis 0 0 0  XYZ
  end
  begin
     id 2 
     name lfemur
     direction 0.34202 -0.939693 0  
     length 7.12796  
     axis 0 0 20  XYZ
    dof rx ry rz
    limits (-160.0 20.0)
           (-70.0 70.0)
           (-60.0 70.0)
  end
  begin
     id 3 
     name ltibia
     direction 0.34202 -0.939693 0   
     length 7.58108   
     axis 0 0 20   XYZ
    dof rx
    limits (-10.0 170.0)
  end
  begin
     id 4 
     name lfoot
     direction 0.0669471 -0.183936 0.980656   
     length 2.17365   
     axis -90 7.62852e-016 20   XYZ
    dof rx rz
    limits (-45.0 90.0)
           (-70.0 20.0)
  end
  begin
     id 5 
     name ltoes
     direction 1.53508e-011 -4.21705e-011 1   
     length 1.09427   
     axis -90 7.62852e-016 20   XYZ
    dof rx
    limits (-90.0 20.0)
  end
  begin
     id 6 
     name rhipjoint
     direction -0.700191 -0.625589 0.34405   
     length 2.53115  
     axis 0 0 0  XYZ 
  end
  begin
     id 7 
     name rfemur
     direction -0.34202 -0.939693 0   
     length 7.33006   
     axis 0 0 -20   XYZ
    dof rx ry rz
    limits (-160.0 20.0)
           (-70.0 70.0)
           (-70.0 60.0)
  end
  begin
     id 8 
     name rtibia
     direction -0.34202 -0.939693 0   
     length 7.64926   
     axis 0 0 -20   XYZ
    dof rx
    limits (-10.0 170.0)
 end
 begin
     id 9 
     name rfoot
     direction -0.0688927 -0.189281 0.979503   
     length 2.20493  
     axis -90 -7.62852e-016 -20   XYZ
    dof rx rz
    limits (-45.0 90.0)
           (-20.0 70.0)
  end
  begin
     id 10 
     name rtoes
     direction -1.53567e-011 -4.21933e-011 1   
     length 1.10919   
     axis -90 -7.62852e-016 -20   XYZ
    dof rx
    limits (-90.0 20.0)
  end
  begin
     id 11 
     name lowerback
     direction -0.0167868 0.989873 -0.140959   
     length 2.14596   
     axis 0 0 0   XYZ
    dof rx ry rz
    limits (-20.0 45.0)
           (-30.0 30.0)
           (-30.0 30.0)
  end
  begin
     id 12 
     name upperback
     direction 0.0129109 0.998033 0.0613525   
     length 2.10457   
     axis 0 0 0   XYZ
    dof rx ry rz
    limits (-20.0 45.0)
           (-30.0 30.0)
           (-30.0 30.0)
  end
  begin
     id 13 
     name thorax
     direction 0.0177047 0.991119 0.131797   
     length 2.17652   
     axis 0 0 0   XYZ
    dof rx ry rz
    limits (-20.0 45.0)
           (-30.0 30.0)
           (-30.0 30.0)
  end
  begin
     id 14 
     name lowerneck
     direction -0.0336893 0.997548 0.0613464   
     length 1.8912   
     axis 0 0 0   XYZ
    dof rx ry rz
    limits (-20.0 45.0)
           (-30.0 30.0)
           (-30.0 30.0)
  end
  begin
     id 15 
     name upperneck
     direction 0.0435909 0.997179 -0.0611028   
     length 1.8829   
     axis 0 0 0   XYZ
    dof rx ry rz
    limits (-20.0 45.0)
           (-30.0 30.0)
           (-30.0 30.0)
  end
  begin
     id 16
     name head
     direction 0.0175076 0.999444 -0.0283782  
     length 1.93197  
     axis 0 0 0   XYZ
    dof rx ry rz
    limits (-20.0 45.0)
           (-30.0 30.0)
           (-30.0 30.0)
  end
  begin
     id 17 
     name lclavicle
     direction 0.919164 0.389875 0.0559876  
     length 3.60004  
     axis 0 0 0   XYZ
    dof ry rz
    limits (-20.0 10.0)
           (0.0 20.0)
  end
  begin
     id 18 
     name lhumerus
     direction 1 -4.48958e-011 6.89191e-027   
     length 5.43301   
     axis 180 -30 -90   XYZ
    dof rx ry rz
    limits (-60.0 90.0)
           (-90.0 90.0)
           (-90.0 90.0)
  end
  begin
     id 19
     name lradius
     direction 1 -4.4897e-011 3.24727e-027   
     length 3.15936   
     axis 180 -30 -90   XYZ
    dof rx
    limits (-10.0 170.0)
  end
  begin
     id 20
     name lwrist
     direction 1 -4.4897e-011 9.00228e-027   
     length 1.57968   
     axis -6.29373e-015 90 90   XYZ
    dof ry
    limits (-180.0 0.0)
 end
  begin
     id 21 
     name lhand
     direction 1 -4.48968e-011 1.80042e-026   
     length 0.712827   
     axis -1.14882e-014 90 90   XYZ
    dof rx rz
    limits (-90.0 90.0)
           (-45.0 45.0)
  end
  begin
     id 22 
     name lfingers
     direction 1 -4.49019e-011 3.60267e-026   
     length 0.574699   
     axis -2.29769e-014 90 90   XYZ
    dof rx
    limits (0.0 90.0)
  end
  begin
     id 23
     name lthumb
     direction 0.707107 -6.3498e-011 0.707107   
     length 0.825157   
     axis -90 45 5.37419e-014   XYZ
    dof rx rz
    limits (-45.0 45.0)
           (-45.0 45.0)
  end
  begin
     id 24 
     name rclavicle
     direction -0.890334 0.455305 -0.00132111   
     length 3.51494  
     axis 0 0 0   XYZ 
    dof ry rz
    limits (-10.0 20.0)
           (-20.0 0.0)
  end
  begin
     id 25 
     name rhumerus
     direction -1 -4.48967e-011 5.07175e-028  
     length 5.34194   
     axis 180 30 90   XYZ
    dof rx ry rz
    limits (-90.0 60.0)
           (-90.0 90.0)
           (-90.0 90.0)
  end
  begin
     id 26 
     name rradius
     direction -1 -4.48955e-011 3.30467e-027   
     length 3.19351   
     axis 180 30 90   XYZ
    dof rx
    limits (-10.0 170.0)
  end
  begin
     id 27 
     name rwrist
     direction -1 -4.48968e-011 9.00208e-027   
     length 1.59676   
     axis -6.29373e-015 -90 -90   XYZ
    dof ry
    limits (-180.0 0.0)
  end
  begin
     id 28
     name rhand
     direction -1 -4.49e-011 1.80099e-026   
     length 0.743862   
     axis -1.14882e-014 -90 -90   XYZ
    dof rx rz
    limits (-90.0 90.0)
           (-45.0 45.0)
  end
  begin
     id 29
     name rfingers
     direction -1 -4.49009e-011 3.6023e-026   
     length 0.599721   
     axis -2.29769e-014 -90 -90   XYZ
    dof rx
    limits (0.0 90.0)
  end
  begin
     id 30
     name rthumb
     direction -0.707107 -6.35025e-011 0.707107   
     length 0.861083   
     axis -90 -45 -5.37419e-014   XYZ
    dof rx rz
    limits (-45.0 45.0)
           (-45.0 45.0)
  end
:hierarchy
  begin
    root lhipjoint rhipjoint lowerback
    lhipjoint lfemur
    lfemur ltibia
    ltibia lfoot
    lfoot ltoes
    rhipjoint rfemur
    rfemur rtibia
    rtibia rfoot
    rfoot rtoes
    lowerback upperback
    upperback thorax
    thorax lowerneck lclavicle rclavicle
    lowerneck upperneck
    upperneck head
    lclavicle lhumerus
    lhumerus lradius
    lradius lwrist
    lwrist lhand lthumb
    lhand lfingers
    rclavicle rhumerus
    rhumerus rradius
    rradius rwrist
    rwrist rhand rthumb
    rhand rfingers
  end

#!OML:ASF H:\Martial Arts Walks\Project 1\Capture day 1\Session 1\male.ASF
:FULLY-SPECIFIED
:DEGREES
602
root -1.64803 13.4407 -3.24408 9.72384 -28.0323 -14.8547
lowerback 13.8074 5.77431 8.39009
upperback -0.898481 9.34648 3.6216
thorax -7.97319 4.23075 -2.62866
lowerneck -2.74218 0.270959 -2.94723
upperneck 5.728 0.285651 3.7696
head 2.28122 0.179683 1.72459
rclavicle -4.01731e-014 2.43014e-014
rhumerus -29.8975 23.8819 -79.9665
rradius 52.0751
rwrist 12.6531
rhand 2.7887 -45.1228
rfingers 7.12502
rthumb 28.2586 -73.0116
lclavicle -4.01731e-014 2.43014e-014
lhumerus -18.6398 -7.84869 81.9203
lradius 26.6969
lwrist -19.3062
lhand -16.1375 18.7952
lfingers 7.12502
lthumb 10.0675 48.5344
rfemur 14.8519 -3.61641 10.6757
rtibia 34.4102
rfoot -23.0107 -32.5253
rtoes -33.0778
lfemur -64.023 32.516 -4.38886
ltibia 86.9808
lfoot -20.7439 8.69171
ltoes -5.68557
603
root -1.64818 13.447 -3.1742 10.0817 -27.9011 -14.7007
lowerback 13.6318 5.8349 8.18316
upperback -0.950692 9.37403 3.54966
thorax -7.94708 4.25376 -2.58157
lowerneck -2.81826 0.23171 -2.93447
upperneck 5.49063 0.242952 3.72085
head 2.2181 0.157868 1.70304
rclavicle -6.45802e-014 -2.33075e-014
rhumerus -29.3019 24.1629 -79.8723
rradius 52.3296
rwrist 12.8155
rhand 2.438 -44.423
rfingers 7.12502
rthumb 27.9234 -72.3668
lclavicle -6.45802e-014 -2.33075e-014
lhumerus -18.3736 -7.94105 81.794
lradius 26.6525
lwrist -19.2392
lhand -16.2969 18.4292
lfingers 7.12502
lthumb 9.91369 48.1758
rfemur 15.0288 -3.36445 10.712
rtibia 33.609
rfoot -22.7479 -32.6706
rtoes -32.9202
lfemur -64.4002 32.399 -4.8815
ltibia 87.2591
lfoot -21.3218 9.14833
ltoes -3.1013
604
root -1.64829 13.456 -3.10304 10.4278 -27.8214 -14.5385
lowerback 13.5161 5.87942 7.94252
upperback -0.997756 9.38125 3.47117
thorax -7.95525 4.26619 -2.52704
lowerneck -2.89487 0.192479 -2.96962
upperneck 5.26077 0.197875 3.75246
head 2.15852 0.135963 1.71641
rclavicle -1.92635e-014 3.3048e-014
rhumerus -28.6544 24.4119 -79.8239
rradius 52.5303
rwrist 13.076
rhand 2.19528 -44.4627
rfingers 7.12502
rthumb 27.6913 -72.444
lclavicle -1.92635e-014 3.3048e-014
lhumerus -18.2079 -8.07856 81.6547
lradius 26.7483
lwrist -19.0353
lhand -16.1009 18.4701
lfingers 7.12502
lthumb 10.1028 48.2076
rfemur 15.2127 -2.99136 10.7944
rtibia 32.7763
rfoot -22.3336 -32.9526
rtoes -32.8167
lfemur -64.7114 32.3294 -5.38068
ltibia 87.5187
lfoot -21.4858 10.1822
ltoes -2.3246
605
root -1.64774 13.4646 -3.02434 10.7624 -27.7568 -14.3158
lowerback 13.399 5.92355 7.63549
upperback -1.10276 9.38332 3.38423
thorax -8.03524 4.27444 -2.44917
lowerneck -2.80788 0.132951 -2.93667
upperneck 5.01914 0.123379 3.69762
head 2.06578 0.0970518 1.68718
rclavicle -6.78663e-014 -1.53064e-014
rhumerus -28.1136 24.7001 -79.8319
rradius 52.7123
rwrist 13.2364
rhand 1.73075 -44.4186
rfingers 7.12502
rthumb 27.2471 -72.4704
lclavicle -6.78663e-014 -1.53064e-014
lhumerus -18.1782 -8.17185 81.5293
lradius 26.8183
lwrist -18.9351
lhand -16.1156 18.5689
lfingers 7.12502
lthumb 10.0887 48.307
rfemur 15.4278 -2.6138 10.7979
rtibia 31.8978
rfoot -21.9499 -33.1884
rtoes -32.622
lfemur -65.0368 32.3035 -5.96881
ltibia 87.7887
lfoot -21.6988 11.3298
ltoes -1.12081
606
root -1.64701 13.4797 -2.94188 11.1283 -27.6862 -14.0968
lowerback 13.2921 5.97772 7.32254
upperback -1.2232 9.39981 3.28601
thorax -8.13573 4.28869 -2.38456
lowerneck -2.82844 0.0964579 -2.90222
upperneck 4.86649 0.0776969 3.68541
head 2.021 0.0746367 1.6744
rclavicle -3.65826e-014 -1.39149e-014
rhumerus -27.5897 24.9204 -79.8376
rradius 52.8903
rwrist 13.3846
rhand 1.26247 -44.2716
rfingers 7.12502
rthumb 26.799 -72.393
lclavicle -3.65826e-014 -1.39149e-014
lhumerus -18.0853 -8.43545 81.4067
lradius 26.8225
lwrist -18.6308
lhand -16.2488 18.6789
lfingers 7.12502
lthumb 9.96009 48.4232
rfemur 15.6243 -2.17807 10.8594
rtibia 30.9962
rfoot -21.4986 -33.4928
rtoes -32.4228
lfemur -65.3657 32.2748 -6.59112
ltibia 88.0283
lfoot -21.8569 12.6086
ltoes 0.199276
607
root -1.6449 13.4971 -2.853 11.5079 -27.5986 -13.909
lowerback 13.1978 5.99877 7.02243
upperback -1.33893 9.37618 3.199
thorax -8.24144 4.28328 -2.30933
lowerneck -2.96044 0.11176 -2.91862
upperneck 4.79076 0.100525 3.74971
head 2.01981 0.0883452 1.69909
rclavicle 3.08116e-015 -1.6201e-014
rhumerus -27.0385 25.2136 -79.8648
rradius 53.0656
rwrist 13.4984
rhand 0.756571 -44.3021
rfingers 7.12502
rthumb 26.3148 -72.4967
lclavicle 3.08116e-015 -1.6201e-014
lhumerus -18.0256 -8.49448 81.2383
lradius 26.8442
lwrist -18.5062
lhand -16.3677 18.8246
lfingers 7.12502
lthumb 9.84543 48.5744
rfemur 15.8515 -1.64763 11.0048
rtibia 30.073
rfoot -20.272 -34.0401
rtoes -32.8744
lfemur -65.6689 32.2308 -7.20461
ltibia 88.2639
lfoot -22.0427 13.9413
ltoes 1.74231
608
root -1.64212 13.516 -2.7565 11.9233 -27.505 -13.6392
lowerback 12.9852 6.02967 6.67343
upperback -1.46017 9.34417 3.07066
thorax -8.28621 4.27938 -2.23551
lowerneck -3.09089 0.106359 -2.87331
upperneck 4.69529 0.0947492 3.78051
head 2.01237 0.0880713 1.70093
rclavicle 8.74963e-014 2.29596e-014
rhumerus -26.5442 25.4224 -79.9056
rradius 53.2987
rwrist 13.4836
rhand 0.181923 -44.4437
rfingers 7.12502
rthumb 25.7646 -72.7193
lclavicle 8.74963e-014 2.29596e-014
lhumerus -17.9256 -8.5955 81.0613
lradius 26.8315
lwrist -18.3488
lhand -16.4903 19.1521
lfingers 7.12502
lthumb 9.72718 48.9074
rfemur 16.0446 -1.06952 11.0826
rtibia 29.1479
rfoot -19.5444 -34.4165
rtoes -32.6604
lfemur -66.009 32.1838 -7.95352
ltibia 88.4788
lfoot -22.2531 15.2343
ltoes 3.05549
609
root -1.63682 13.538 -2.65487 12.4089 -27.3319 -13.346
lowerback 12.6942 6.06174 6.36482
upperback -1.65408 9.31968 2.93175
thorax -8.35683 4.27553 -2.19042
lowerneck -2.9788 0.0262215 -2.75249
upperneck 4.50483 -0.0115662 3.68824
head 1.93259 0.0336353 1.64379
rclavicle 9.27144e-014 1.24737e-014
rhumerus -26.1892 25.5471 -79.961
rradius 53.5529
rwrist 13.4019
rhand -0.170078 -44.7164
rfingers 7.12502
rthumb 25.4275 -73.0404
lclavicle 9.27144e-014 1.24737e-014
lhumerus -17.8758 -8.7046 80.9459
lradius 26.7499
lwrist -18.2637
lhand -16.5583 19.3691
lfingers 7.12502
lthumb 9.66149 49.1275
rfemur 16.1703 -0.47027 11.2016
rtibia 28.2665
rfoot -18.5807 -34.888
rtoes -32.5261
lfemur -66.4255 32.0267 -8.77517
ltibia 88.6536
lfoot -22.4085 16.5271
ltoes 4.47023
610
root -1.63103 13.5635 -2.54338 12.8182 -27.147 -12.958
lowerback 12.3539 6.05986 5.97667
upperback -1.79276 9.22918 2.77947
thorax -8.35247 4.24821 -2.09594
lowerneck -3.14373 0.0555213 -2.82239
upperneck 4.5065 0.026914 3.84387
head 1.96299 0.0567811 1.70914
rclavicle -7.85013e-014 -1.87603e-014
rhumerus -25.8225 25.6925 -80.0286
rradius 53.8241
rwrist 13.2652
rhand -0.676821 -44.6798
rfingers 7.12502
rthumb 24.9419 -73.0721
lclavicle -7.85013e-014 -1.87603e-014
lhumerus -17.7838 -8.78628 80.8037
lradius 26.6155
lwrist -18.1875
lhand -17.0053 19.3927
lfingers 7.12502
lthumb 9.23025 49.1707
rfemur 16.3006 0.302029 11.3074
rtibia 27.5255
rfoot -17.735 -35.3933
rtoes -32.2146
lfemur -66.6439 31.7704 -9.62048
ltibia 88.7695
lfoot -22.8061 17.662
ltoes 6.16822
611
root -1.62322 13.5945 -2.42476 13.2006 -26.8956 -12.5471
lowerback 11.9995 6.04581 5.61184
upperback -1.91888 9.12649 2.63284
thorax -8.32348 4.21537 -2.00322
lowerneck -3.20207 0.0151386 -2.83932
upperneck 4.41083 -0.0250761 3.89637
head 1.94476 0.0321456 1.72737
rclavicle 1.33496e-014 -3.98812e-014
rhumerus -25.4967 25.813 -80.0757
rradius 54.1476
rwrist 13.0215
rhand -1.25512 -44.8205
rfingers 7.12502
rthumb 24.3877 -73.2886
lclavicle 1.33496e-014 -3.98812e-014
lhumerus -17.6779 -8.72568 80.697
lradius 26.4955
lwrist -18.213
lhand -17.1315 19.7437
lfingers 7.12502
lthumb 9.10841 49.527
rfemur 16.3856 1.12017 11.4597
rtibia 26.9878
rfoot -16.795 -35.948
rtoes -31.6752
lfemur -66.8061 31.3994 -10.4543
ltibia 88.8144
lfoot -23.111 18.7364
ltoes 7.11183
612
root -1.61246 13.6255 -2.30101 13.4685 -26.6139 -12.0994
lowerback 11.6853 6.01024 5.26533
upperback -2.00124 8.99989 2.4897
thorax -8.268 4.17137 -1.91462
lowerneck -3.19781 -0.02236 -2.75424
upperneck 4.26047 -0.0723294 3.82502
head 1.89573 0.00793406 1.68615
rclavicle 1.92386e-014 6.23687e-015
rhumerus -25.1813 25.9179 -80.108
rradius 54.4524
rwrist 12.703
rhand -1.68703 -45.2676
rfingers 7.12502
rthumb 23.9735 -73.7907
lclavicle 1.92386e-014 6.23687e-015
lhumerus -17.5267 -8.67282 80.6242
lradius 26.2712
lwrist -18.2722
lhand -17.5785 20.1038
lfingers 7.12502
lthumb 8.67709 49.9055
rfemur 16.4474 1.91454 11.589
rtibia 26.7639
rfoot -15.9015 -36.5044
rtoes -30.9786
lfemur -66.7598 30.9069 -11.232
ltibia 88.8075
lfoot -23.5978 19.6431
ltoes 8.35684
613
root -1.59756 13.6609 -2.17199 13.718 -26.1946 -11.6541
lowerback 11.3924 5.943 5.00075
upperback -2.09177 8.8482 2.36349
thorax -8.22485 4.11061 -1.85121
lowerneck -3.18042 -0.05639 -2.76544
upperneck 4.15098 -0.115338 3.83657
head 1.85877 -0.013873 1.68958
rclavicle -2.90971e-014 -1.1778e-014
rhumerus -24.9884 25.9194 -80.1086
rradius 54.8148
rwrist 12.4005
rhand -2.09264 -45.3306
rfingers 7.12502
rthumb 23.5845 -73.9043
lclavicle -2.90971e-014 -1.1778e-014
lhumerus -17.3988 -8.51392 80.621
lradius 26.03
lwrist -18.4968
lhand -17.971 20.4589
lfingers 7.12502
lthumb 8.29828 50.2759
rfemur 16.3695 2.60536 11.7736
rtibia 26.921
rfoot -15.2969 -37.0593
rtoes -29.7727
lfemur -66.7168 30.2058 -12.006
ltibia 88.7164
lfoot -23.776 20.616
ltoes 9.18157
614
root -1.57878 13.6946 -2.03729 13.9033 -25.681 -11.325
lowerback 11.1756 5.82767 4.89648
upperback -2.12982 8.6608 2.28175
thorax -8.15339 4.02659 -1.82716
lowerneck -3.19995 -0.100113 -2.6561
upperneck 4.01955 -0.170689 3.73146
head 1.82006 -0.0422652 1.63347
rclavicle -5.74363e-014 -4.32357e-015
rhumerus -24.7482 25.8991 -80.1159
rradius 55.0845
rwrist 12.0897
rhand -2.65995 -45.4232
rfingers 7.12502
rthumb 23.0403 -74.066
lclavicle -5.74363e-014 -4.32357e-015
lhumerus -17.2045 -8.30061 80.631
lradius 25.7145
lwrist -18.6988
lhand -18.5187 20.9753
lfingers 7.12502
lthumb 7.76971 50.8126
rfemur 16.1571 3.06618 12.0129
rtibia 27.5715
rfoot -14.4794 -37.5795
rtoes -28.6008
lfemur -66.5244 29.3918 -12.5588
ltibia 88.5936
lfoot -23.9751 21.3159
ltoes 9.75492
615
root -1.55827 13.7313 -1.8985 13.9886 -25.1195 -10.974
lowerback 11.011 5.71018 4.83067
upperback -2.14884 8.47921 2.20938
thorax -8.08679 3.94323 -1.82034
lowerneck -3.19054 -0.142253 -2.75736
upperneck 3.95751 -0.225204 3.83427
head 1.80177 -0.0689909 1.68284
rclavicle 4.27387e-015 -4.77083e-015
rhumerus -24.6237 25.8092 -80.0959
rradius 55.4
rwrist 11.7159
rhand -3.19281 -45.6092
rfingers 7.12502
rthumb 22.5289 -74.3148
lclavicle 4.27387e-015 -4.77083e-015
lhumerus -17.0324 -8.0704 80.7166
lradius 25.3514
lwrist -18.9797
lhand -19.2416 21.514
lfingers 7.12502
lthumb 7.07193 51.3759
rfemur 15.7677 3.35666 12.1979
rtibia 28.747
rfoot -13.5455 -38.0438
rtoes -27.0121
lfemur -66.1773 28.4513 -13.0479
ltibia 88.4
lfoot -24.1314 21.7837
ltoes 10.1325
616
root -1.53401 13.7686 -1.76008 13.9599 -24.4972 -10.5987
lowerback 10.9842 5.57303 4.78589
upperback -2.13627 8.28267 2.15059
thorax -8.06508 3.84958 -1.82246
lowerneck -3.17621 -0.20837 -2.7596
upperneck 3.86645 -0.309643 3.79474
head 1.77246 -0.112358 1.66737
rclavicle -1.01914e-013 -2.31584e-014
rhumerus -24.4807 25.6616 -80.0448
rradius 55.6879
rwrist 11.3144
rhand -3.64627 -45.8061
rfingers 7.12502
rthumb 22.0936 -74.5639
lclavicle -1.01914e-013 -2.31584e-014
lhumerus -16.798 -7.65375 80.8344
lradius 24.9501
lwrist -19.4312
lhand -19.9282 22.0547
lfingers 7.12502
lthumb 6.40914 51.9377
rfemur 15.1148 3.3499 12.2449
rtibia 30.5606
rfoot -12.3046 -38.2324
rtoes -25.633
lfemur -65.7077 27.4264 -13.5214
ltibia 88.144
lfoot -24.4615 21.9955
ltoes 10.6826
